/* XPM */
static char *_ef7fb89ed60484eecd1f1debf960134jLURL9hAqjjJcOFc[] = {
/* columns rows colors chars-per-pixel */
"50 50 145 2 ",
"   c white",
".  c #FBFFF8",
"X  c #FFFCFF",
"o  c #FBFFFF",
"O  c #FFF9FB",
"+  c #F8FFFF",
"@  c #FFFCF6",
"#  c #F4FFFF",
"$  c #FFFFFA",
"%  c #F9FFFA",
"&  c #FFFFF5",
"*  c #F0E3D2",
"=  c #C3B2B1",
"-  c #B3ACA7",
";  c #6E6468",
":  c #646563",
">  c #A5AFB3",
",  c #AFB0BE",
"<  c #DBE5EC",
"1  c #E8FEF5",
"2  c #FCFCFE",
"3  c MintCream",
"4  c #FFF8FF",
"5  c #FFFCFA",
"6  c #FBFBF9",
"7  c #FBFFF3",
"8  c #F5FBFF",
"9  c #F6FDF9",
"0  c #EDFFFF",
"q  c #FFFCF2",
"w  c #FFF9F7",
"e  c #E1C7B5",
"r  c #8E4C2D",
"t  c #010005",
"y  c #191B27",
"u  c #5683A0",
"i  c #BCE6FE",
"p  c #F5FFF3",
"a  c #F4FDE2",
"s  c #BD7040",
"d  c #060001",
"f  c #030001",
"g  c black",
"h  c #010538",
"j  c #75BFE3",
"k  c #F0FFF9",
"l  c #D4802B",
"z  c #5AD5FE",
"x  c #FFFFEF",
"c  c #FFD08C",
"v  c #230301",
"b  c #034888",
"n  c #C5FDFE",
"m  c #DE7A0C",
"M  c #FEFED6",
"N  c #9F2E00",
"B  c #FFFEE5",
"V  c #AE4003",
"C  c #01ADF5",
"Z  c #C35F03",
"A  c #01010D",
"S  c #0296D4",
"D  c #FEFEAC",
"F  c #620402",
"G  c #000645",
"H  c #50C5FB",
"J  c #EAE5EB",
"K  c #E0E1DB",
"L  c #E2E2E3",
"P  c #EBE2E1",
"I  c #E2F1FC",
"U  c #026DB8",
"Y  c #FFCC79",
"T  c #370201",
"R  c #00022C",
"E  c #5DCFEE",
"W  c #CB5C01",
"Q  c #00439B",
"!  c #BBFCFD",
"~  c #FFD683",
"^  c #6B9BB3",
"/  c #A8ADA8",
"(  c #AEADAE",
")  c #A04B0F",
"_  c #004CA7",
"`  c #CBF1FB",
"'  c #430301",
"]  c #EA8A22",
"[  c #000354",
"{  c #8EFDFE",
"}  c #F2892B",
"|  c #00005F",
" . c #83FFFE",
".. c #E38D35",
"X. c #EF891B",
"o. c #010466",
"O. c #75FFFC",
"+. c #E08C24",
"@. c #FEF5D3",
"#. c #D3E1E0",
"$. c #CE8D47",
"%. c #93CFEA",
"&. c #E6FEFF",
"*. c #B55E08",
"=. c #0E0101",
"-. c #9DFAFC",
";. c #42C3EC",
":. c #BB4F02",
">. c #01B2FF",
",. c #FEF6EB",
"<. c #82EBFC",
"1. c #FFB14F",
"2. c #010C70",
"3. c #FFBE68",
"4. c #002B8B",
"5. c #FEE79B",
"6. c #520401",
"7. c #006DC3",
"8. c #08BFFB",
"9. c #011C7C",
"0. c #FFF8DE",
"q. c #FDD39E",
"w. c #010222",
"e. c #251712",
"r. c #028EC8",
"t. c #FEE5AD",
"y. c #681101",
"u. c #23B5EA",
"i. c #170101",
"p. c #01144F",
"a. c #5BBDE4",
"s. c #010216",
"d. c #02B4E9",
"f. c #FEE9B8",
"g. c #AC7C46",
"h. c #411C08",
"j. c #92EAFD",
"k. c #E78B11",
"l. c #053D6D",
"z. c #83ACCD",
"x. c #FFF0A8",
"c. c #8B1E02",
"v. c #0284B9",
"b. c #DDFDFE",
"n. c #82380A",
/* pixels */
"                . X o O + @ + # $ @ X   % & * = - ; : ; > , < 1 o 2 o o 2   X 3 4   $ X $ 3 X       ",
"              + o X & @   @ @ o 2 o o   X X # %     2     O   5 5 o +     6 o % X o + X   o X       ",
"                X   . 7 8 X 5 X o +   $ %   X   O     2 o o o   3 & 5 X   $ +   $ + $ o X o $       ",
"              $   o o   # X o $ @ $   X X   % . $         X X X X   + 9 3   X $ O   $ 8 o %         ",
"                              X $ $ #   2 o X X   $ X X $ 7 o                                       ",
"                              $ + X   $ $   X   % 2 X $ % X o                                       ",
"                              o $ 5 + $ @ o O   5 o #     o X                                       ",
"                              o     $ @   o $ o   7 . X 5 $ X                                       ",
"                              $ 8 X   %   # + X X 5 o $   8 &                                       ",
"                              $ $ 4 # & O 0 q 4 $ & X 2 # + o                                       ",
"                              7 X 8 . & X w e r t t y u i   @                                       ",
"                              5 8 p O 2 a s d f f t g f h j #                                       ",
"                X $ $ o 2 k 4 0 4 . $ 7 l d g g g g g g g h z $ 2 x X   o # $                       ",
"              o %   2 9   $ %   4 $ . c v f g g g f t g f t b n #   5 2 k X X                       ",
"              X + # X   4 x # p $ X 7 m g g g g g f t g f t h z + o # O % 4 +                       ",
"              5   + 2 M N h j 4 1 X B V d f f g g f g g f t t C $ O   B Z A S                       ",
"              X X 9 $ D F g G H $ 3 x J K K L < K P L L L L L I X # p Z d g U                       ",
"              p 2   % X Y T g R E   + 2 2 X $ o X   +   p 7   X w a W d g Q !                       ",
"              X o $ . o 4 ~ T g R ^ > / > / ( / ( > / ( ( / / - ( ) f g _ ` +                       ",
"              5 $ o X $ $ $ c ' g g g g f d f t g g g d t t f t f g g Q ` + .                       ",
"                # 4 . X + 0   ] f f t g g t g g g A d g t g f g t d [ { $ o   o & +   q + X X       ",
"                  X %     # X } g g t g g t g |  .o ..g f t g g t d |  .$ X $       o $ o $         ",
"              5 $   # o 5   w X.g g t g g f g o.O.# X.f g f g g g g | O.$ X .   2   o #     9       ",
"                  8 #   O     X.g g f f g f g [ { % +.g f f t g g g o.O.  4 .     X   o 6 6         ",
"              X o o $ 2   X   ] g g d f g f g |  .. X.f g g t f f g [ { 2 4 %   $ 2   5     X       ",
"                # & @.J < L #.$.f f d f g f g |  .O } t g g g g f g h %.L P L J &.  X @   X X       ",
"              2 o B *.g g g g =.g d g g g g f | -.  +.g g g g g g g A t g f g t ;.$ O $   6         ",
"              $ 2 M :.g f g g g t g t g g f f |  .. X.f g t f g g g g g g g g t >.w   2 o o %       ",
"                2 $ ,.K J J L ..g f g g g f g | O.  ] g g g g t f g [ <.#.P L J 6         2         ",
"                X $ $ $   2 $ 1.d t g t f t g | O.  ] g g g g g f g 2. .+ % 4 2     2     2         ",
"              $ $       $ . $ 3.v t g t f t g | O.  ] g g g g f g d 4.n o X #     2                 ",
"              $ $     2 . $ 2 5.6.g g f f g g | O.  ] g g g g g g g 7.X 2   &   2                   ",
"                $ $   o     X B V g g f g t f | O.  ] g g g g g t t 8.4 & X O                       ",
"              X   . o   2 X X $ ] g g g g t g | O.  ] g g g g g g 9.-.# 4   5                       ",
"              2 2 $ $   X & 0.~ T t f g f t g | O.  ] g g g g t g t S 5 # X                 2       ",
"                2 $   2 X B q.' g w.e.g d t g | O.  ] g g g g g f f w.r.% o o                       ",
"                + O   p 4 t.y.f R u.a $.i.A f |  .# } g f t p.a.t.y.g t S # 5                       ",
"              p   $ . # @.N g s.d.5 & o f.g.h.[ j.% k.f l.z.O o   x.y.g s.S 0                       ",
"                k @ # 2 ..f t r.o + X @ w & 2 2 0 8 O # 4 o k @ X X f.F g |  .                      ",
"              .   4 o $ t.c.v.b.4 5 o 0     $ 4 % 3 $ 6 # # 4 $ X   X f.n.7.&.                      ",
"              $ X o # O 4 # +   # X   $ p X # & 4 4 $ o 0 o 5   # #   q % X %                       ",
"              & $ 2 $ X 7 o   X o o 8 # $ + X O   . & @   5 # + X p o o % X .                       ",
"              o 4 $ 7 & o $   @ @ @ & 2 X & X o X o &     5 + X p o X X o 3 o                       ",
"              X % O X + 4 @ # # o + o X w X # o 5 # 4   2 x   X . p X 4     $                       ",
"                                                                                                    ",
"                                                                                                    ",
"                                                                                                    ",
"                                                                                                    ",
"                                                                                                    ",
"                                                                                                    "
};
