/* XPM */
static char *_bc0226fe7ba49a49f444e12a9669994mhbPiLIJAfXiMgU3[] = {
/* columns rows colors chars-per-pixel */
"50 50 120 2 ",
"   c white",
".  c #FCFCFE",
"X  c #F9FFFA",
"o  c #FFF8FF",
"O  c #FBFFFF",
"+  c MintCream",
"@  c #FFFCFF",
"#  c #F4FFFF",
"$  c #F5FFF3",
"%  c #FBFFF3",
"&  c #F6FDF9",
"*  c #FFFFFA",
"=  c #FBFBF9",
"-  c #FFFCFA",
";  c #FFFCF2",
":  c #FBFFF8",
">  c #FFF9FB",
",  c #EDFFFF",
"<  c #FCDDC4",
"1  c #AABED1",
"2  c #E2F1FC",
"3  c #FFF8DE",
"4  c #E0E1DB",
"5  c #E2E2E3",
"6  c #EAE5EB",
"7  c #E6FEFF",
"8  c #F8FFFF",
"9  c #FEFED6",
"0  c #DE7A0C",
"q  c #030001",
"w  c black",
"e  c #01144F",
"r  c #5DCFEE",
"t  c #C35F03",
"y  c #010005",
"u  c #00022C",
"i  c #68D2FC",
"p  c #FFF9F7",
"a  c #A04B0F",
"s  c #060001",
"d  c #01010D",
"f  c #04A7D8",
"g  c #CB5C01",
"h  c #010222",
"j  c #FFFFF5",
"k  c #FEE5AD",
"l  c #8B1E02",
"z  c #0284B9",
"x  c #DDFDFE",
"c  c #4BD6FD",
"v  c #FFFCF6",
"b  c #FFCC79",
"n  c #430301",
"m  c #E4D9C3",
"M  c #750C01",
"N  c #004CA7",
"B  c #1ED3FB",
"V  c #F7A452",
"C  c #170101",
"Z  c #D3E1E0",
"A  c #FEF5D3",
"S  c #D4802B",
"D  c #000645",
"F  c #9F2E00",
"G  c #010216",
"H  c #FFFFEF",
"J  c #CA7022",
"K  c #FDFCCB",
"L  c #012669",
"P  c #9FE8FC",
"I  c #FDD39E",
"U  c #541703",
"Y  c #026DB8",
"T  c #E8FEF5",
"R  c #010538",
"E  c #FEE9B8",
"W  c #752705",
"Q  c #00439B",
"!  c #CBF1FB",
"~  c #F3B260",
"^  c #370201",
"/  c #002F94",
"(  c #BCE6FE",
")  c #F5BD7C",
"_  c #5AD5FE",
"`  c #FFD08C",
"'  c #006DC3",
"]  c #E08C24",
"[  c #00125F",
"{  c #93D9F9",
"}  c #025AA5",
"|  c #C5FDFE",
" . c #2E0201",
".. c #B55E08",
"X. c #47B2E4",
"o. c #011C7C",
"O. c #F0FFF9",
"+. c #82380A",
"@. c #0296D4",
"#. c #7BC6F8",
"$. c #AE4003",
"%. c #ADE7FC",
"&. c #02B4E9",
"*. c #A62A00",
"=. c #BBFCFD",
"-. c #230301",
";. c #053D6D",
":. c #681101",
">. c #0E0101",
",. c #008AD2",
"<. c #0C1912",
"1. c #2C1921",
"2. c #191819",
"3. c #19170F",
"4. c #FFB25B",
"5. c #FFB14F",
"6. c #002B8B",
"7. c #FFBE68",
"8. c #FEF6EB",
"9. c #F5FBFF",
/* pixels */
"                .   X o O O                                   + . @   # $ % @   O O     & O @       ",
"              *     = @ * * O                                 @ *   . * @ o @ @   @ @ - X O o       ",
"                                                                                                    ",
"                                                                                                    ",
"                                                                                                    ",
"                                                                                                    ",
"                                                                                                    ",
"                                                                                                    ",
"                                                                                                    ",
"                                                                                                    ",
"                              @   + O o X     @ ; @   * * @ % O . O % * # @ *                       ",
"                              : @ + > >   , @   < 1 2 ; * O   3 4 5 6 5 7 o 8                       ",
"                              @ @ @ O   @ + 9 0 q w e r O # - t q y w u i O O                       ",
"                              8 , . p   : 9 a q q s q d f O O g w w y h i @ #                       ",
"                              X j     X k l q y y y q y y z x t w w w h c v O                       ",
"                                p O $ b n q w w z m M s w w N a w w w u B * -                       ",
"                              # O & V C q w h f 3 Z A a q w y q w q w u r p                         ",
"                                3 S s q w D r A F G f H J w q w w q w u c ,                         ",
"                * X , O > @ O K a s w q L P I U y s y Y T V C y w w w R i   v O @ 8 #   :   -       ",
"              * o O * @   H E W d w y Q ! ~ ^ w s w w w / ( ) n q s q u _ X # O * v . @   : O       ",
"                  @ :   H ` ^ w q y ' T ] C w w w w w y w [ { E M y w y } | o ; & * @ v @ $         ",
"                @ *   j V  .w w h f 9 ..q w w q y s s w w w u X.A a s q w o.P , p 8   8 - O -       ",
"              * j O.H S w w q R r E +.y y s w y s y w w q q w G @.T J s w w e #.* @ . @ @   j       ",
"              O # 9 $.s y q L %.` U q w y w w q w w w w w w y q y } ! V C w q h &.o * .   & @       ",
"              o @ 3 *.s y Q =.~ -.q w y w q s w w y w w y w w s q w ;.%.) n q G &.O j O.- 8 o       ",
"              $ @ j E :.z x ] >.q w w w w y w w y s s w w q w w y q w [ { k M ,.& O @ $ o           ",
"                          O g w q w w w y s w w s w y y q y w w w q w u _                           ",
"                          O g w y w w w w q w w q y w y w q w w w q w u _                           ",
"                          O g w y w y w w w h <.1.2.3.^ w s w w w q w u _                           ",
"                          O g w q w w w w y o.| o ;   4.q y w w w q w u _                           ",
"                          O g w w w w w w y / =.@ H   5.q y w w w q w u _                           ",
"                          O g w w w y w q w 6.|   * * 4.w q w w w q w u _                           ",
"                          O g w w w w w q w 6.| . + @ 4.w q w w w q w u _                           ",
"                          O g w w w w w q q / =.  $ o 4.w w y w w q w u _                           ",
"                v + 8 o O ; t s w w w w q y / =.v @ . 5.w w w w y w w R _ O *                       ",
"                * 8 O - 8 * ) >.w w w w q y L |   @ * 7.w q w w q w w e P   -                       ",
"              O   O   - X 8 8.*   @     * $ , *     8 ; , - - % @   @ 8 7 * @                       ",
"                  O       8 O * * @ . 9.  * X   .     @ O >   :   . @ O   * -                       ",
"              @   X O 8 @ @ O X   -     8 @ - O   j   O @ O O   > O   + @ & *                       ",
"              @ * X O O @ v -   @   *   . O @   p * O 8 @ . * O @ X   8 o   O                       ",
"              O * @   * O X * v   : = @   8 o # @   j * @ @ 8 O @     9.    8                       ",
"              8 j @   j 8 ,   * . +   o % + @ j @ . : #   p   : o @ X O X - O                       ",
"                                                                                                    ",
"                                                                                                    ",
"                                                                                                    ",
"                                                                                                    ",
"                                                                                                    ",
"                                                                                                    ",
"                                                                                                    ",
"                                                                                                    "
};
