/* XPM */
static char *fb19f0eba0f849c0834ebf74f3e96f41aAlnpLmGUvOENWBC[] = {
/* columns rows colors chars-per-pixel */
"50 50 179 2 ",
"   c white",
".  c #FBFFFF",
"X  c #FFFCFF",
"o  c #F5FFF3",
"O  c #FFFCFA",
"+  c #F5FBFF",
"@  c #FFFFFA",
"#  c #FCFCFE",
"$  c #FBFBF9",
"%  c #F4FFFF",
"&  c #FBFFF8",
"*  c #FFFFF5",
"=  c #F8FFFF",
"-  c MintCream",
";  c #FFF9F7",
":  c #FFFCF6",
">  c #FFF9FB",
",  c #FEF6EB",
"<  c #E1C7B5",
"1  c #A18473",
"2  c #6E6468",
"3  c #554233",
"4  c #191B27",
"5  c #385C6D",
"6  c #5683A0",
"7  c #AABED1",
"8  c #E2F1FC",
"9  c #F9D6B1",
"0  c #9D6534",
"q  c #060001",
"w  c black",
"e  c #030001",
"r  c #010005",
"t  c #053D6D",
"y  c #93D9F9",
"u  c #E8FEF5",
"i  c #FFFCF2",
"p  c #FFF8FF",
"a  c #FBFFF3",
"s  c #F6FDF9",
"d  c #FEF5D3",
"f  c #CA7022",
"g  c #191819",
"h  c #071A20",
"j  c #034888",
"k  c #C5E0F2",
"l  c #FFD08C",
"z  c #541703",
"x  c #0D5D8E",
"c  c #ADD4F1",
"v  c #FFFFEF",
"b  c #F0E3D2",
"n  c #AC7C46",
"m  c #230301",
"M  c #010538",
"N  c #5DCFEE",
"B  c #F9FFFA",
"V  c #FFCC79",
"C  c #430301",
"Z  c #BCE6FE",
"A  c #EDFFFF",
"S  c #FDEBDD",
"D  c #010216",
"F  c #01ADF5",
"G  c #E6FEFF",
"H  c #FFD683",
"J  c #010222",
"K  c #01A4EC",
"L  c #F5BD7C",
"P  c #370201",
"I  c #01010D",
"U  c #32ABDE",
"Y  c #923403",
"T  c #23B5EA",
"R  c #00125F",
"E  c #82EBFC",
"W  c #FFFEE5",
"Q  c #EF891B",
"!  c #AFB0BE",
"~  c #CBF1FB",
"^  c #FFF8DE",
"/  c #C3B2B1",
"(  c #97C3DC",
")  c #F3B260",
"_  c #005EB0",
"`  c #620402",
"'  c #005CB6",
"]  c #B55E08",
"[  c #FEE9B8",
"{  c #750C01",
"}  c #002F94",
"|  c #D36C04",
" . c #50C5FB",
".. c #F2892B",
"X. c #2E0201",
"o. c #026DB8",
"O. c #F49837",
"+. c #01B2FF",
"@. c #FEE5AD",
"#. c #F0FFF9",
"$. c #025AA5",
"%. c #DDFDFE",
"&. c #FFDC8F",
"*. c #006DC3",
"=. c #08BFFB",
"-. c #000354",
";. c #92EAFD",
":. c #FEE79B",
">. c #F4FDE2",
",. c #CB5C01",
"<. c #FFF0A8",
"1. c #681101",
"2. c #002B8B",
"3. c #AEFBFD",
"4. c #FFBE68",
"5. c #170101",
"6. c #2DB6FC",
"7. c #FFB25B",
"8. c #0E0101",
"9. c #00022C",
"0. c #68D2FC",
"q. c #FEFED6",
"w. c #D2B8A5",
"e. c #008ADA",
"r. c #EA8A22",
"t. c #00005F",
"y. c #83FFFE",
"u. c #982801",
"i. c #9F2E00",
"p. c #75FFFC",
"a. c #FEA341",
"s. c #6EEEFE",
"d. c #C6CCD2",
"f. c #E4D9C3",
"g. c #FDFCCB",
"h. c #8B1E02",
"j. c #39CFFD",
"k. c #009AE3",
"l. c #520401",
"z. c #008CE2",
"x. c #AE4003",
"c. c #011C7C",
"v. c #BBFCFD",
"b. c #BB4F02",
"n. c #010C70",
"m. c #9DFAFC",
"M. c #FFB14F",
"N. c #C5FDFE",
"B. c #E08C24",
"V. c #F7A452",
"C. c #012669",
"Z. c #6DB6CF",
"A. c #E9C190",
"S. c #82380A",
"D. c #008AD2",
"F. c #FFECC7",
"G. c #010466",
"H. c #9FE8FC",
"J. c #000645",
"K. c #005FBD",
"L. c #3588B7",
"P. c #D2FCFE",
"I. c #C35F03",
"U. c #007DCD",
"Y. c #A5AFB3",
"T. c #DBE5EC",
"R. c #012F7F",
"E. c #D4802B",
"W. c #752705",
"Q. c #63A1D0",
"!. c #B8D5E1",
"~. c #44A3C9",
"^. c #D3AC84",
"/. c #6C401F",
"(. c #033256",
"). c #83ACCD",
"_. c #B3ACA7",
"`. c #AEADAE",
"'. c #D3E1E0",
/* pixels */
"                                                                        .   X o   O + @             ",
"                                                                        #   $ % O % & X             ",
"                                                                        * X = . X - . ;             ",
"                                          $ @ : @   . = . #           @                             ",
"                                        . .   @   : O @       #       O                             ",
"                                            # &   @   @ O         # #                               ",
"                                        O @ X & . . # . @ @ @                                       ",
"                                          @         #   O             #                             ",
"                                        = =   X @ @ @ O     #     #                                 ",
"                                            * > * $ . = = . = .   # # X                             ",
"                                        , < 1 2 3 4 5 6 7 8 . .                                     ",
"        & .             X   # = % X 9 0 q w w w w w w w e r t y u .   X     . - : . . i             ",
"        .           @ . @ p a s d f w w w w r g h h g q e w r e j k X & @ > . % . * % X             ",
"              @ @ @ @ @     s l z r r r x c + X * v i * b n m r w M N # * B X p *   . $             ",
"            @ O @   .   = s V C q e j Z A . X   % +   p i . S f q e D F G p B X . A X :             ",
"            @ @     #   O H C w J K A O @ p X @ . = =   = X & i L P w I U @ = > X . . B             ",
"            @     X   @ d Y r J T % v a @ & B   X .   p A = * . > H P q R E   =   = % >             ",
"          @ @ . #   @ W Q r r K @ @ : < ! ~ A ; ; $ % . ^ / ( s p % ) q r _ G B X . = X             ",
"          . @     @ W d ` w ' G B : ] e e M y A & X : [ { e e } ~ - i | w J  .% v : X .             ",
"        : X O . o *   ..w D  .% p l X.w w w o.& @ . p O.e w q w +.  . @.` w o.#.- X p v             ",
"          X @ . B @ d Y e $.%.% : &.C e w r *.+ X . @ O.w q I r =.* O * f w -.;.    .               ",
"          B   . X X :.C r K % : p >.,.q r J y .   . B <.1.w r 2.3.@ p X 4.5.I 6.  @ = %             ",
"          @   . X X 7.8.9.0.X #.p * q.< ! 8 G & # &   X S w.( 8 =   . % <.` w e.- @   =             ",
"            . # @   r.e t.y.  @ - B % O   s @ @ X @ # . O ; B u @ * . @ q.u.q o.. O X &             ",
"        @   .   @   r.w -.y.- = #   % O @   X & X   O . O . = X * : p - q.i.r _ .   X               ",
"        @   . X s   ..w t.p.    @ . > . = p X &   # X @ . . X v X % . X q.u.r _ = .   #             ",
"            = O = . a.e -.s.X a @ = d d.A O . -   . O @ @ * f.Z .   & O g.h.e e.. - B *             ",
"        X & .     O 4.5.D j.B p G g.h.e k.p * @ O -   * . 4.8.t.y.p p   <.` w k.@ O .               ",
"        X @   .   @ :.l.w z.; v   ^ x.r c.v.% & - % . X , b.w n.m..   #.M.w D j.p =   @             ",
"          @   = . @ q.x.w c.v.= ; p a.e w _ N.@ = p > @ B.w r e.a = # W b.w c.3.X p - X             ",
"          &   # = & @ V.e I F @ #.p >.b.q r C.Z.8 , A.S.q w 2.v.> B   V X.e D.@ @ % O @             ",
"          @ . X = B   F.h.e G.m.A @ o g.i.w q e w e w w w C.H.O . # q.x.w J.E A p     B             ",
"          @ = O = .   & M.5.w K.G . # i X ) X.w w e r D L.P.p X i & r.q I D.# @ X * . X             ",
"        X & . @ p .   % W I.w r U.%.. X   > W b / Y.T.G #.&   X @ V.q I R.v.i & X @ : B             ",
"        X s   & X . O X = d i.w r x ~   B X @ = . . . O > .   ^ E.e w t.;.X X % @ #   B             ",
"                        A : [ W.q w M Q.% % .   O @ @ @ = i A.z q w J.;.                            ",
"                          $ p ^ ] q r w 9.6 !.8 % @ , f.1 z e w r j Z =                             ",
"                        @ . * i X A.z e w w w w e w r r w w e J.~.G = p                             ",
"                            - O .   a ^./.5.q q w w w w r (.).%.O p X v                             ",
"                          X X % a = @ X @ i b / _.`.! '.%.X = % X B i                               ",
"                          O @   p @     O   . = = .     X v p * = p @ #                             ",
"                        & = p > X B @ $     O @ @ @     ; . X   v % @                               ",
"                          $ =   & X + .   #   .     X   . @ . & = . .                               ",
"                                        .   * X :                                                   ",
"                                          #     $     $                                             ",
"                                        @   #     $                                                 ",
"                                        @ X @ =   @   O                                             ",
"                                        @ X B # @   $ .                                             ",
"                                        O   .   i X @ =                                             ",
"                                        @   = @ p v # A                                             "
};
