/* XPM */
static char *e7b663dbe48c4ecc8b77ffdb5e551432hf3pDQTTtVYVkGUE[] = {
/* columns rows colors chars-per-pixel */
"50 50 71 1 ",
"  c white",
". c #FBFFF8",
"X c #FFFCFF",
"o c #F8FFFF",
"O c #FFFCFA",
"+ c #F0FFF9",
"@ c #FFFCF6",
"# c #FBFFFF",
"$ c #F5FFF3",
"% c #FFF9F7",
"& c #F4FFFF",
"* c #FFFFFA",
"= c #FFFCF2",
"- c #FFF8FF",
"; c #F6FDF9",
": c #F0E3D2",
"> c #A18473",
", c #554233",
"< c #0C1912",
"1 c #191B27",
"2 c #191819",
"3 c #072540",
"4 c #67718A",
"5 c #ADD4F1",
"6 c #F9FFFA",
"7 c #E29C45",
"8 c #170101",
"9 c #060001",
"0 c black",
"q c #030001",
"w c #010005",
"e c #026DB8",
"r c #DDFDFE",
"t c #FFFFEF",
"y c #F49837",
"u c #007DCD",
"i c #FFF0A8",
"p c #620402",
"a c #010538",
"s c #1ED3FB",
"d c #FFB14F",
"f c #008CE2",
"g c #EA8A22",
"h c #005CB6",
"j c #005EB0",
"k c #005FBD",
"l c #EF891B",
"z c #FFF9FB",
"x c #FFBE68",
"c c #230301",
"v c #009AE3",
"b c #FDFCCB",
"n c #8B1E02",
"m c #000354",
"M c #82EBFC",
"N c #FFD08C",
"B c #370201",
"V c #02B4E9",
"C c #FFFFF5",
"Z c #FDD39E",
"A c #541703",
"S c #5DCFEE",
"D c #FCDDC4",
"F c #AEADAE",
"G c #A8ADA8",
"H c #B3ACA7",
"J c #B8D5E1",
"K c #F5FBFF",
"L c #EDFFFF",
"P c MintCream",
"I c #FCFCFE",
/* pixels */
"            .XX o oO +@X@#        $X%&&X X        ",
"                                                  ",
"                                                  ",
"                                                  ",
"                                                  ",
"                                                  ",
"                                                  ",
"                                                  ",
"                                                  ",
"          O&&*@#X=                o#X#-&&X        ",
"          %;X:>,<122222222222222223456*=*&        ",
"          #%78900q00000000000000000wwerX@t        ",
"          Xyqqq9000000000000000000q00wuo o        ",
"          ip00ww0q0000000000000000w090as &        ",
"          dwq0000w0000000000000000qw0qqftO        ",
"          gq0qq0w000000000000000000000qh-         ",
"          gqwqw09000000000000000000qwq0h-.        ",
"          g0q00q00000000000000000000000j          ",
"          g0q00q00000000000000000000000j          ",
"          g0q00q00000000000000000000000j          ",
"          g0q00q00000000000000000000000j          ",
"          g0q00q00000000000000000000000j          ",
"          g0q00q00000000000000000000000j          ",
"          g0q00q00000000000000000000000j          ",
"          g0q00q00000000000000000000000j          ",
"          g0q00q00000000000000000000000j          ",
"          g0q00q00000000000000000000000j          ",
"          g0q00q00000000000000000000000j          ",
"          g0q00q00000000000000000000000j          ",
"          g0q00q00000000000000000000000j          ",
"          g0q00q00000000000000000000000j          ",
"          g0q00q00000000000000000000000j          ",
"          g0q00q00000000000000000000000j          ",
"          g000w090000000000000000000wq0k-*        ",
"          l0w00q0q00000000000000000wwqqkzo        ",
"          xc0000w00000000000000000q000qv*X        ",
"          bnw0w000000000000000000000q0mM X        ",
"          .NB9qq000000000000000000wqwwV#-*        ",
"          -CZAw900000000000000000000aS6&*-        ",
"           O=CDFGFFFFFFFFFFFFFFFFFHJKL #X*        ",
"          @o&PzX=o                L-Xz t #        ",
"                                                  ",
"                                                  ",
"                                                  ",
"                                                  ",
"                                                  ",
"                                                  ",
"                                                  ",
"                                                  ",
"          X ** **CCI6*#P#X6#K *@* o#z*X  *        "
};
